<svg width="32" height="32" viewBox="0 0 32 32" fill="none" xmlns="http://www.w3.org/2000/svg">
<path fill-rule="evenodd" clip-rule="evenodd" d="M23.1963 2.48533C22.8987 2.2993 22.5253 2.28294 22.2125 2.44224C21.8997 2.60153 21.6933 2.91315 21.6688 3.26329L21.0356 12.282H19.3835L17.7603 9.68474C17.6719 9.54326 17.5752 9.40989 17.4712 9.28488C18.5008 8.66053 19.1888 7.52919 19.1888 6.23717C19.1888 4.27009 17.5941 2.67545 15.627 2.67545C13.66 2.67545 12.0653 4.27009 12.0653 6.23717C12.0653 7.07009 12.3512 7.83623 12.8303 8.44281C12.5171 8.61418 12.2249 8.81761 11.9576 9.04835L9.84384 7.99146C8.52685 7.33297 6.93666 8.04396 6.54923 9.46452L5.34348 13.8856C5.05083 14.9587 5.55627 16.0891 6.5511 16.5865L8.86353 17.7427C8.85981 17.9104 8.89828 18.0775 8.97707 18.2282L9.83779 19.8748C9.78132 19.9253 9.72973 19.983 9.68442 20.0477L6.35246 24.8077C5.39769 26.1716 5.79965 28.0591 7.2273 28.9157C8.51073 29.6857 10.1704 29.3405 11.0404 28.1226L12.8355 25.6094L14.0007 27.8384C14.6588 29.0974 16.1631 29.6539 17.4822 29.1263C18.9477 28.5401 19.6273 26.849 18.9748 25.4117L16.0265 18.9171L16.1875 18.0319C16.3745 18.2262 16.634 18.3385 16.908 18.3385H20.6104L19.9136 28.2634C19.8749 28.8143 20.2901 29.2923 20.8411 29.331C21.392 29.3697 21.87 28.9544 21.9086 28.4035L22.6377 18.0198C23.6306 17.5229 24.3123 16.4961 24.3123 15.3102C24.3123 14.2761 23.794 13.3631 23.003 12.8168L23.1827 10.2571L28.4555 7.55673C28.7759 7.39263 28.9834 7.06896 28.9987 6.70929C29.0141 6.34962 28.8349 6.00946 28.5296 5.81866L23.1963 2.48533ZM11.8201 23.6671L10.8677 21.845L7.99092 25.9546C7.70131 26.3683 7.82323 26.9409 8.25629 27.2007C8.6456 27.4343 9.14904 27.3296 9.41292 26.9601L11.6112 23.8825C11.6713 23.7985 11.742 23.7265 11.8201 23.6671ZM25.9746 6.58026L23.3463 7.92631L23.5473 5.06321L25.9746 6.58026ZM8.94942 9.78032L10.7161 10.6637C10.5687 10.968 10.4515 11.2889 10.3682 11.6221L9.3378 15.7438L7.44553 14.7977C7.30341 14.7266 7.2312 14.5651 7.27301 14.4118L8.47876 9.99075C8.5341 9.78782 8.76128 9.68624 8.94942 9.78032ZM16.0643 10.7447C15.6133 10.0232 14.6656 9.75734 13.8895 10.1454C13.1029 10.5387 12.52 11.2611 12.3085 12.1072L10.9256 17.6387L15.7731 26.9119C15.9558 27.2613 16.3733 27.4158 16.7394 27.2693C17.1461 27.1066 17.3347 26.6373 17.1536 26.2384L14.0762 19.4592C13.992 19.2738 13.9664 19.0672 14.0029 18.867L14.6433 15.3446C14.7153 14.9483 15.0182 14.6339 15.4115 14.547C15.8049 14.4601 16.2119 14.6178 16.4442 14.9469L17.4262 16.3385H21.2841C21.8519 16.3385 22.3123 15.8781 22.3123 15.3102C22.3123 14.7423 21.8519 14.282 21.2841 14.282H18.8293C18.4845 14.282 18.164 14.1044 17.9813 13.812L16.0643 10.7447ZM15.627 4.67545C14.7645 4.67545 14.0653 5.37466 14.0653 6.23717C14.0653 7.09968 14.7645 7.79889 15.627 7.79889C16.4896 7.79889 17.1888 7.09968 17.1888 6.23717C17.1888 5.37466 16.4896 4.67545 15.627 4.67545Z" fill="#1D1D1D"/>
</svg>
