<svg width="18" height="18" viewBox="0 0 18 18" fill="none" xmlns="http://www.w3.org/2000/svg">
<path d="M7.40936 3.66642C7.6466 3.02529 8.5534 3.02529 8.79064 3.66642L10.2877 7.71227L14.3336 9.20937C14.9747 9.4466 14.9747 10.3534 14.3336 10.5906L10.2877 12.0877L8.79064 16.1336C8.5534 16.7747 7.6466 16.7747 7.40936 16.1336L5.91226 12.0877L1.86642 10.5906C1.22529 10.3534 1.22529 9.44661 1.86641 9.20937L5.91226 7.71227L7.40936 3.66642Z" fill="url(#paint0_linear_2972_2438)"/>
<path d="M14.1238 0.746565C14.2187 0.490115 14.5814 0.490116 14.6763 0.746566L15.3724 2.62767L17.2535 3.32375C17.5099 3.41864 17.5099 3.78136 17.2535 3.87625L15.3724 4.57233L14.6763 6.45344C14.5814 6.70989 14.2187 6.70988 14.1238 6.45343L13.4277 4.57233L11.5466 3.87625C11.2902 3.78136 11.2902 3.41864 11.5466 3.32375L13.4277 2.62767L14.1238 0.746565Z" fill="url(#paint1_linear_2972_2438)"/>
<defs>
<linearGradient id="paint0_linear_2972_2438" x1="16.1424" y1="18.1952" x2="0.939216" y2="18.1952" gradientUnits="userSpaceOnUse">
<stop stop-color="#C82169"/>
<stop offset="0.533654" stop-color="#7E42EB"/>
<stop offset="1" stop-color="#285BF3"/>
</linearGradient>
<linearGradient id="paint1_linear_2972_2438" x1="17.9744" y1="7.28675" x2="11.2175" y2="7.28675" gradientUnits="userSpaceOnUse">
<stop stop-color="#C82169"/>
<stop offset="0.533654" stop-color="#7E42EB"/>
<stop offset="1" stop-color="#285BF3"/>
</linearGradient>
</defs>
</svg>
