<svg width="24" height="24" viewBox="0 0 24 24" fill="none" xmlns="http://www.w3.org/2000/svg">
<path d="M8.25 14.25C8.80228 14.25 9.25 14.6977 9.25 15.25C9.25 15.8023 8.80228 16.25 8.25 16.25C7.69772 16.25 7.25 15.8023 7.25 15.25C7.25 14.6977 7.69772 14.25 8.25 14.25Z" fill="#1D1D1D"/>
<path d="M15.75 14.25C16.3023 14.25 16.75 14.6977 16.75 15.25C16.75 15.8023 16.3023 16.25 15.75 16.25C15.1977 16.25 14.75 15.8023 14.75 15.25C14.75 14.6977 15.1977 14.25 15.75 14.25Z" fill="#1D1D1D"/>
<path fill-rule="evenodd" clip-rule="evenodd" d="M12 2C14.2137 2 15.9629 2.23652 17.1914 2.48535C18.8008 2.81134 19.75 4.25969 19.75 5.78125V16.25C19.75 17.5088 18.9043 18.57 17.75 18.8965V20.25C17.75 20.8023 17.3023 21.25 16.75 21.25C16.1977 21.25 15.75 20.8023 15.75 20.25V19H8.25V20.25C8.25 20.8023 7.80228 21.25 7.25 21.25C6.69772 21.25 6.25 20.8023 6.25 20.25V18.8965C5.09575 18.57 4.25 17.5088 4.25 16.25V5.78125C4.25 4.25969 5.19922 2.81134 6.80859 2.48535C8.0371 2.23652 9.78626 2 12 2ZM5.75 16.25C5.75 16.9404 6.30964 17.5 7 17.5H17C17.6904 17.5 18.25 16.9404 18.25 16.25V13H5.75V16.25ZM5.75 11.5H18.25V7H5.75V11.5ZM12 3.5C9.89349 3.5 8.24417 3.72465 7.10645 3.95508C6.39311 4.09957 5.86808 4.70437 5.76758 5.5H18.2324C18.1319 4.70437 17.6069 4.09957 16.8936 3.95508C15.7558 3.72465 14.1065 3.5 12 3.5Z" fill="#1D1D1D"/>
</svg>
