<svg width="32" height="32" viewBox="0 0 32 32" fill="none" xmlns="http://www.w3.org/2000/svg">
<path d="M18.1928 2.66699C18.5679 2.66699 18.9399 2.74017 19.2865 2.88379C19.421 2.93951 19.5504 3.00591 19.6742 3.08105C20.0636 3.31732 20.329 3.70257 20.559 4.0957L24.139 10.2158C24.4774 10.6558 24.9524 11.5305 25.1918 12.1084C25.4312 12.6863 25.5529 13.3061 25.5512 13.9316V19.8086C25.5512 20.0717 25.4444 20.3101 25.2719 20.4824C25.2637 20.4996 25.2566 20.5173 25.2474 20.5342L22.4818 25.6025L24.0111 26.751L27.1986 20.9102C27.4631 20.4254 28.0703 20.2464 28.5551 20.5107C29.0399 20.7752 29.219 21.3833 28.9545 21.8682L24.9535 29.2012C24.689 29.686 24.0809 29.8651 23.5961 29.6006C23.1805 29.3738 22.9909 28.8946 23.1117 28.457L21.5599 27.292L21.2465 27.8682C20.9819 28.3527 20.3747 28.531 19.89 28.2666C19.4053 28.0021 19.2271 27.3949 19.4916 26.9102L19.7299 26.4727C18.5064 26.4437 17.3394 25.9464 16.4721 25.0791C16.3075 24.9146 16.1563 24.7392 16.0189 24.5547C15.8817 24.7389 15.7312 24.9147 15.5668 25.0791C14.6973 25.9485 13.5269 26.4459 12.3002 26.4727L12.5092 26.8545C12.7735 27.3393 12.5945 27.9465 12.1098 28.2109C11.625 28.4754 11.0179 28.2971 10.7533 27.8125L10.4721 27.2969L8.90565 28.4727C8.98832 28.89 8.79691 29.3304 8.4037 29.5449C7.91887 29.8094 7.31077 29.6303 7.04628 29.1455L3.04628 21.8125C2.78177 21.3277 2.95989 20.7196 3.44471 20.4551C3.92954 20.1906 4.53764 20.3697 4.80214 20.8545L8.02089 26.7549L9.55018 25.6074L6.75233 20.4785C6.74765 20.4699 6.74404 20.4608 6.73964 20.4521C6.58386 20.2826 6.48768 20.057 6.48768 19.8086V13.9316C6.48597 13.306 6.60858 12.6864 6.84803 12.1084C7.0875 11.5304 7.56239 10.6557 7.90077 10.2158L11.4799 4.0957C11.7098 3.70256 11.9753 3.31734 12.3646 3.08105C12.4886 3.00584 12.6188 2.93954 12.7533 2.88379C13.0997 2.74031 13.4711 2.66702 13.8461 2.66699C14.2213 2.66699 14.5932 2.74017 14.9398 2.88379C15.2864 3.02741 15.6014 3.23856 15.8666 3.50391C15.9203 3.55731 15.9708 3.61356 16.0199 3.6709C16.069 3.6136 16.1196 3.55727 16.1732 3.50391C16.4384 3.2386 16.7534 3.02739 17.1 2.88379C17.4464 2.74032 17.8178 2.667 18.1928 2.66699ZM13.6596 4.58984C13.591 4.60356 13.5246 4.62532 13.4613 4.65332C13.2481 4.74758 13.114 4.95243 12.9974 5.1543L9.28749 11.5811C9.02814 11.9645 8.75241 12.4912 8.60878 12.8379C8.46515 13.1847 8.39089 13.5563 8.39198 13.9316V19.3506C8.4358 19.4021 8.47452 19.4598 8.50819 19.5215L11.265 24.5752C11.3021 24.5721 11.3399 24.5713 11.3773 24.5713H12.2015C12.959 24.5705 13.6855 24.2689 14.2211 23.7334C14.7567 23.1978 15.0581 22.4713 15.059 21.7139V15.0469C15.0589 14.7944 14.9582 14.5525 14.7797 14.374C14.6012 14.1955 14.3593 14.0948 14.1068 14.0947C13.8542 14.0947 13.6116 14.1954 13.433 14.374C13.2546 14.5525 13.1538 14.7945 13.1537 15.0469V17.9043C13.1537 18.4303 12.7275 18.8564 12.2015 18.8564C11.6757 18.8563 11.2494 18.4302 11.2494 17.9043V14.1631C11.2479 13.6627 11.4407 13.3001 11.6322 12.8379C11.8238 12.3755 12.0456 11.9245 12.2826 11.4141L14.518 6.34082C14.5906 6.1633 14.679 6.00424 14.7269 5.88867C14.7748 5.77309 14.7986 5.64855 14.7982 5.52344V5.52051C14.7976 5.33264 14.7418 5.14914 14.6371 4.99316C14.5322 4.83713 14.3832 4.71523 14.2094 4.64355C14.0355 4.57189 13.844 4.55301 13.6596 4.58984ZM18.3793 4.58984C18.1949 4.55304 18.0033 4.5719 17.8295 4.64355C17.6558 4.71524 17.5075 4.8372 17.4027 4.99316C17.2979 5.14922 17.2413 5.33251 17.2406 5.52051V5.52344C17.2403 5.64855 17.265 5.77309 17.3129 5.88867C17.3608 6.00422 17.4483 6.16343 17.5209 6.34082L19.7562 11.4141C19.9932 11.9245 20.215 12.3755 20.4066 12.8379C20.5982 13.3002 20.7909 13.6627 20.7894 14.1631V17.9043C20.7894 18.4303 20.3633 18.8564 19.8373 18.8564C19.3113 18.8564 18.8851 18.4303 18.8851 17.9043V15.0469C18.885 14.7944 18.7844 14.5525 18.6058 14.374C18.4273 14.1955 18.1854 14.0948 17.933 14.0947C17.6804 14.0947 17.4378 14.1954 17.2592 14.374C17.0807 14.5525 16.98 14.7945 16.9799 15.0469V21.7139C16.9807 22.4713 17.2822 23.1978 17.8178 23.7334C18.3534 24.269 19.0798 24.5705 19.8373 24.5713H20.6625C20.6968 24.5713 20.731 24.5716 20.765 24.5742L23.4916 19.5771C23.5347 19.4982 23.5876 19.4273 23.6469 19.3652V13.9316C23.648 13.5564 23.5746 13.1846 23.431 12.8379C23.2874 12.4911 23.0107 11.9645 22.7514 11.5811L19.0414 5.1543C18.9249 4.95246 18.7907 4.74756 18.5775 4.65332C18.5142 4.62534 18.4479 4.60354 18.3793 4.58984ZM16.0189 7.83008L14.3158 12.2109C14.9509 12.2565 15.5502 12.5136 16.0199 12.9365C16.4896 12.5138 17.0881 12.2565 17.723 12.2109L16.0189 7.83008Z" fill="#1D1D1D"/>
</svg>
