<svg width="24" height="24" viewBox="0 0 24 24" fill="none" xmlns="http://www.w3.org/2000/svg">
<path d="M8 15.9961C8.55228 15.9961 9 16.4438 9 16.9961C9 17.5484 8.55228 17.9961 8 17.9961C7.44772 17.9961 7 17.5484 7 16.9961C7 16.4438 7.44772 15.9961 8 15.9961Z" fill="#1D1D1D"/>
<path d="M12 15.9961C12.5523 15.9961 13 16.4438 13 16.9961C13 17.5484 12.5523 17.9961 12 17.9961C11.4477 17.9961 11 17.5484 11 16.9961C11 16.4438 11.4477 15.9961 12 15.9961Z" fill="#1D1D1D"/>
<path d="M16 15.9961C16.5523 15.9961 17 16.4438 17 16.9961C17 17.5484 16.5523 17.9961 16 17.9961C15.4477 17.9961 15 17.5484 15 16.9961C15 16.4438 15.4477 15.9961 16 15.9961Z" fill="#1D1D1D"/>
<path d="M8 11.9961C8.55228 11.9961 9 12.4438 9 12.9961C9 13.5484 8.55228 13.9961 8 13.9961C7.44772 13.9961 7 13.5484 7 12.9961C7 12.4438 7.44772 11.9961 8 11.9961Z" fill="#1D1D1D"/>
<path d="M12 11.9961C12.5523 11.9961 13 12.4438 13 12.9961C13 13.5484 12.5523 13.9961 12 13.9961C11.4477 13.9961 11 13.5484 11 12.9961C11 12.4438 11.4477 11.9961 12 11.9961Z" fill="#1D1D1D"/>
<path d="M16 11.9961C16.5523 11.9961 17 12.4438 17 12.9961C17 13.5484 16.5523 13.9961 16 13.9961C15.4477 13.9961 15 13.5484 15 12.9961C15 12.4438 15.4477 11.9961 16 11.9961Z" fill="#1D1D1D"/>
<path fill-rule="evenodd" clip-rule="evenodd" d="M16.25 2.49609C16.6642 2.49609 17 2.83188 17 3.24609V3.99609H18.752C19.9946 3.99609 21.002 5.00345 21.002 6.24609V19.75C21.002 20.9926 19.9946 22 18.752 22H5.24805C4.00541 22 2.99805 20.9926 2.99805 19.75V6.24609C2.99805 5.00345 4.00541 3.99609 5.24805 3.99609H7V3.24609C7 2.83188 7.33579 2.49609 7.75 2.49609C8.16421 2.49609 8.5 2.83188 8.5 3.24609V3.99609H15.5V3.24609C15.5 2.83188 15.8358 2.49609 16.25 2.49609ZM4.49805 19.75C4.49805 20.1642 4.83383 20.5 5.24805 20.5H18.752C19.1662 20.5 19.502 20.1642 19.502 19.75V9.49609H4.49805V19.75ZM5.24805 5.49609C4.83383 5.49609 4.49805 5.83188 4.49805 6.24609V7.99609H19.502V6.24609C19.502 5.83188 19.1662 5.49609 18.752 5.49609H17V6.24609C17 6.66031 16.6642 6.99609 16.25 6.99609C15.8358 6.99609 15.5 6.66031 15.5 6.24609V5.49609H8.5V6.24609C8.5 6.66031 8.16421 6.99609 7.75 6.99609C7.33579 6.99609 7 6.66031 7 6.24609V5.49609H5.24805Z" fill="#1D1D1D"/>
</svg>
