<svg width="24" height="24" viewBox="0 0 24 24" fill="none" xmlns="http://www.w3.org/2000/svg">
<path d="M19.6602 4.1672C17.0202 2.3672 13.7602 3.2072 12.0002 5.2672C10.2402 3.2072 6.98021 2.3572 4.34021 4.1672C2.94021 5.1272 2.06021 6.7472 2.00021 8.4572C1.86021 12.3372 5.30021 15.4472 10.5502 20.2172L10.6502 20.3072C11.4102 20.9972 12.5802 20.9972 13.3402 20.2972L13.4502 20.1972C18.7002 15.4372 22.1302 12.3272 22.0002 8.4472C21.9402 6.7472 21.0602 5.1272 19.6602 4.1672ZM12.1002 18.7272L12.0002 18.8272L11.9002 18.7272C7.14021 14.4172 4.00021 11.5672 4.00021 8.6772C4.00021 6.6772 5.50021 5.1772 7.50021 5.1772C9.04021 5.1772 10.5402 6.1672 11.0702 7.5372H12.9402C13.4602 6.1672 14.9602 5.1772 16.5002 5.1772C18.5002 5.1772 20.0002 6.6772 20.0002 8.6772C20.0002 11.5672 16.8602 14.4172 12.1002 18.7272Z" fill="white"/>
</svg>
