<svg width="16" height="16" viewBox="0 0 16 16" fill="none" xmlns="http://www.w3.org/2000/svg">
<path d="M7 9.16658H6V8.16658H7V9.16658Z" fill="white"/>
<path d="M10 9.16658H9V8.16658H10V9.16658Z" fill="white"/>
<path d="M7 6.83325H6V5.83325H7V6.83325Z" fill="white"/>
<path d="M10 6.83325H9V5.83325H10V6.83325Z" fill="white"/>
<path d="M7 4.49992H6V3.49992H7V4.49992Z" fill="white"/>
<path d="M10 4.49992H9V3.49992H10V4.49992Z" fill="white"/>
<path fill-rule="evenodd" clip-rule="evenodd" d="M11.6667 1.33325C11.9428 1.33325 12.1667 1.55711 12.1667 1.83325V5.33325H14C14.2761 5.33325 14.5 5.55711 14.5 5.83325V14.1666C14.5 14.4427 14.2761 14.6666 14 14.6666H2C1.72386 14.6666 1.5 14.4427 1.5 14.1666V5.83325C1.5 5.55711 1.72386 5.33325 2 5.33325H3.83333V1.83325C3.83333 1.55711 4.05719 1.33325 4.33333 1.33325H11.6667ZM2.5 13.6666H3.83333V6.33325H2.5V13.6666ZM4.83333 13.6666H6V10.6666C6 10.3904 6.22386 10.1666 6.5 10.1666H9.5C9.77614 10.1666 10 10.3904 10 10.6666V13.6666H11.1667V2.33325H4.83333V13.6666ZM12.1667 13.6666H13.5V6.33325H12.1667V13.6666ZM7 13.4999H9V11.1666H7V13.4999Z" fill="white"/>
</svg>
