<svg width="16" height="32" viewBox="0 0 16 32" fill="none" xmlns="http://www.w3.org/2000/svg">
<path d="M21.2365 26.6667C20.5635 25.3918 18.6665 20.8928 18.6665 10.6667V10.5354L19.7837 11.28C20.6713 11.8703 21.399 12.6712 21.902 13.611C22.405 14.5509 22.6676 15.6007 22.6665 16.6667H24.6665C24.668 15.2713 24.3243 13.8973 23.6659 12.6671C23.0075 11.4368 22.0549 10.3886 20.8931 9.61586L19.4692 8.66666H21C22.5141 8.66952 23.987 9.16047 25.2 10.0667L27.0665 11.4667L28.2665 9.86666L26.3999 8.46666C24.84 7.30211 22.9465 6.67095 20.9999 6.66666H19.7837C21.0899 5.39135 22.841 4.67411 24.6665 4.66666H26.6665V2.66666H24.6665C23.323 2.67169 21.9975 2.97629 20.7866 3.55828C19.5756 4.14028 18.5097 4.985 17.6665 6.03096C16.8233 4.985 15.7574 4.14028 14.5464 3.55828C13.3355 2.97629 12.01 2.67169 10.6665 2.66666H8.6665V4.66666H10.6665C12.492 4.67411 14.2431 5.39135 15.5493 6.66666H14.333C12.3864 6.67095 10.4929 7.30211 8.933 8.46666L7.0665 9.86666L8.2665 11.4667L10.1333 10.0667C11.3463 9.16047 12.8192 8.66952 14.3333 8.66666H15.8641L14.4402 9.61586C13.2783 10.3886 12.3257 11.4368 11.6673 12.667C11.0088 13.8973 10.665 15.2713 10.6665 16.6667H12.6665C12.6654 15.6007 12.928 14.5509 13.431 13.611C13.934 12.6712 14.6617 11.8703 15.5493 11.28L16.6665 10.5354V10.6667C16.6665 19.6105 18.0781 24.4313 19.0276 26.6667H3.6665C3.11422 26.6667 2.6665 27.1144 2.6665 27.6667C-nan -nan -nan -nan 2.6665 27.6667Lnan nanL3.6665 28.6667C-nan -nan -nan -nan 3.6665 28.6667C-nan -nan -nan -nan 28.3332 28.6667C28.8855 28.6667 29.3332 28.2189 29.3332 27.6667Lnan nanL29.3332 27.6667C29.3332 27.1144 28.8855 26.6667 28.3332 26.6667H21.2365Z" fill="#1D1D1D"/>
<path d="M11.9998 23.3333H7.33317V27.3333H5.33317V23.3333H3.99984V21.3333H15.3332V23.3333H13.9998V27.3333H11.9998V23.3333Z" fill="#1D1D1D"/>
<path d="M3.69255 28.6667L21.2304 26.6727L2.67171 27.6667C2.67171 28.4708 3.35227 28.6684 3.69255 28.6667Z" fill="#1D1D1D"/>
</svg>
