<svg width="32" height="32" viewBox="0 0 32 32" fill="none" xmlns="http://www.w3.org/2000/svg">
<path fill-rule="evenodd" clip-rule="evenodd" d="M14.3867 10.9902C15.7379 8.28772 19.5953 8.28772 20.9466 10.9902L29.2278 27.5527C29.3828 27.8627 29.3657 28.2306 29.1835 28.5254C29.0013 28.8202 28.6799 28.9993 28.3333 28.9993H6.99995C6.65337 28.9993 6.3319 28.8202 6.14969 28.5254C5.96751 28.2306 5.95045 27.8627 6.10542 27.5527L6.72 26.3223H3.66662C3.32004 26.3223 2.99856 26.1431 2.81636 25.8483C2.63418 25.5535 2.61712 25.1856 2.77209 24.8756L6.91271 16.5944C7.7726 14.8746 10.2273 14.8746 11.0872 16.5944L11.3359 17.0905L14.3867 10.9902ZM19.1575 11.8835C18.5432 10.6556 16.7901 10.6556 16.1757 11.8835L8.61844 26.9993H26.7148L19.1575 11.8835ZM9.29813 17.4889C9.17529 17.2432 8.82462 17.2432 8.70177 17.4889L5.28511 24.3223H7.72L10.2187 19.3249C10.2142 19.3165 10.2087 19.3087 10.2044 19.3001L9.29813 17.4889Z" fill="#1D1D1D"/>
<path fill-rule="evenodd" clip-rule="evenodd" d="M7.99995 5.33138C10.025 5.33138 11.6666 6.973 11.6666 8.99804C11.6666 11.0231 10.025 12.6647 7.99995 12.6647C5.97491 12.6647 4.33328 11.0231 4.33328 8.99804C4.33328 6.973 5.97491 5.33138 7.99995 5.33138ZM7.99995 7.33138C7.07948 7.33138 6.33328 8.07757 6.33328 8.99804C6.33328 9.91852 7.07948 10.6647 7.99995 10.6647C8.92043 10.6647 9.66662 9.91852 9.66662 8.99804C9.66662 8.07757 8.92043 7.33138 7.99995 7.33138Z" fill="#1D1D1D"/>
</svg>
