<svg width="24" height="24" viewBox="0 0 24 24" fill="none" xmlns="http://www.w3.org/2000/svg">
<path d="M16.7501 15.5H17.2501C17.7426 15.5 18.2307 15.5967 18.6857 15.7852C19.1405 15.9736 19.5533 16.2505 19.9015 16.5986C20.2496 16.9468 20.5265 17.3596 20.715 17.8145C20.9034 18.2694 21.0001 18.7575 21.0001 19.25V21.25C21.0001 21.6642 21.3359 22 21.7501 22C22.1643 22 22.5001 21.6642 22.5001 21.25V19.25C22.5001 17.8576 21.9466 16.5227 20.962 15.5381C19.9775 14.5535 18.6425 14 17.2501 14H16.7501V15.5Z" fill="#1D1D1D"/>
<path d="M6.75012 14C5.35774 14 4.02277 14.5535 3.03821 15.5381C2.05364 16.5227 1.50012 17.8576 1.50012 19.25V21.25C1.50012 21.6642 1.83591 22 2.25012 22C2.66434 22 3.00012 21.6642 3.00012 21.25V19.25C3.00012 18.2554 3.39549 17.3019 4.09875 16.5986C4.80202 15.8954 5.75556 15.5 6.75012 15.5H11.2501C11.7426 15.5 12.2307 15.5967 12.6857 15.7852C13.1405 15.9736 13.5533 16.2505 13.9015 16.5986C14.2496 16.9468 14.5265 17.3596 14.715 17.8145C14.9034 18.2694 15.0001 18.7575 15.0001 19.25V21.25C15.0001 21.6642 15.3359 22 15.7501 22C16.1643 22 16.5001 21.6642 16.5001 21.25V19.25C16.5001 17.8576 15.9466 16.5227 14.962 15.5381C13.9775 14.5535 12.6425 14 11.2501 14H6.75012Z" fill="#1D1D1D"/>
<path fill-rule="evenodd" clip-rule="evenodd" d="M9.00012 2C7.96177 2 6.94649 2.30789 6.08313 2.88477C5.21985 3.46164 4.54687 4.28196 4.14954 5.24121C3.75229 6.20043 3.64816 7.25613 3.85071 8.27441C4.0533 9.29276 4.55401 10.2277 5.28821 10.9619C6.0224 11.6961 6.95736 12.1968 7.97571 12.3994C8.99399 12.602 10.0497 12.4978 11.0089 12.1006C11.9682 11.7033 12.7885 11.0303 13.3654 10.167C13.9422 9.30363 14.2501 8.28835 14.2501 7.25C14.2501 5.85761 13.6966 4.52265 12.712 3.53809C11.7275 2.55352 10.3925 2 9.00012 2ZM9.00012 3.5C9.74167 3.5 10.4665 3.71992 11.0831 4.13184C11.6997 4.54383 12.1811 5.12936 12.465 5.81445C12.7488 6.49965 12.8225 7.25405 12.6779 7.98145C12.5332 8.70887 12.1759 9.37692 11.6515 9.90137C11.127 10.4258 10.459 10.783 9.73157 10.9277C9.00417 11.0724 8.24977 10.9987 7.56458 10.7148C6.87949 10.431 6.29395 9.9496 5.88196 9.33301C5.47005 8.7164 5.25012 7.99155 5.25012 7.25C5.25012 6.25544 5.64549 5.30189 6.34875 4.59863C7.05202 3.89537 8.00556 3.5 9.00012 3.5Z" fill="#1D1D1D"/>
<path d="M15.0001 2V3.5C15.7417 3.5 16.4665 3.71992 17.0831 4.13184C17.6997 4.54383 18.1811 5.12936 18.465 5.81445C18.7488 6.49965 18.8225 7.25405 18.6779 7.98145C18.5332 8.70887 18.1759 9.37692 17.6515 9.90137C17.127 10.4258 16.459 10.783 15.7316 10.9277C15.4895 10.9759 15.2446 10.9971 15.0001 10.9971V12.4961C15.6861 12.4961 16.369 12.3656 17.0089 12.1006C17.9682 11.7033 18.7885 11.0303 19.3654 10.167C19.9422 9.30363 20.2501 8.28835 20.2501 7.25C20.2501 5.85761 19.6966 4.52265 18.712 3.53809C17.7275 2.55352 16.3925 2 15.0001 2Z" fill="#1D1D1D"/>
</svg>
