<svg width="24" height="24" viewBox="0 0 24 24" fill="none" xmlns="http://www.w3.org/2000/svg">
<path d="M14.25 14C15.6424 14 16.9773 14.5535 17.9619 15.5381C18.9465 16.5227 19.5 17.8576 19.5 19.25V21.25C19.5 21.6642 19.1642 22 18.75 22C18.3358 22 18 21.6642 18 21.25V19.25C18 18.7575 17.9033 18.2694 17.7148 17.8145C17.5264 17.3596 17.2495 16.9468 16.9014 16.5986C16.5532 16.2505 16.1404 15.9736 15.6855 15.7852C15.2306 15.5967 14.7425 15.5 14.25 15.5H9.75C8.75544 15.5 7.80189 15.8954 7.09863 16.5986C6.39537 17.3019 6 18.2554 6 19.25V21.25C6 21.6642 5.66421 22 5.25 22C4.83579 22 4.5 21.6642 4.5 21.25V19.25C4.5 17.8576 5.05352 16.5227 6.03809 15.5381C7.02265 14.5535 8.35761 14 9.75 14H14.25Z" fill="#1D1D1D"/>
<path fill-rule="evenodd" clip-rule="evenodd" d="M12 2C13.3924 2 14.7273 2.55352 15.7119 3.53809C16.6965 4.52265 17.25 5.85761 17.25 7.25C17.25 8.28835 16.9421 9.30363 16.3652 10.167C15.7884 11.0303 14.968 11.7033 14.0088 12.1006C13.0496 12.4978 11.9939 12.602 10.9756 12.3994C9.95724 12.1968 9.02228 11.6961 8.28809 10.9619C7.55389 10.2277 7.05317 9.29276 6.85059 8.27441C6.64804 7.25613 6.75217 6.20043 7.14941 5.24121C7.54675 4.28196 8.21973 3.46164 9.08301 2.88477C9.94637 2.30789 10.9616 2 12 2ZM12 3.5C11.0054 3.5 10.0519 3.89537 9.34863 4.59863C8.64537 5.30189 8.25 6.25544 8.25 7.25C8.25 7.99155 8.46992 8.7164 8.88184 9.33301C9.29383 9.9496 9.87936 10.431 10.5645 10.7148C11.2496 10.9987 12.004 11.0724 12.7314 10.9277C13.4589 10.783 14.1269 10.4258 14.6514 9.90137C15.1758 9.37692 15.533 8.70887 15.6777 7.98145C15.8224 7.25405 15.7487 6.49965 15.4648 5.81445C15.181 5.12936 14.6996 4.54383 14.083 4.13184C13.4664 3.71992 12.7415 3.5 12 3.5Z" fill="#1D1D1D"/>
</svg>
