<svg width="56" height="28" viewBox="0 0 56 28" fill="none" xmlns="http://www.w3.org/2000/svg">
<path d="M16.6647 11.6622L16.3606 14.0904C16.2359 14.0814 16.1109 14.077 15.9858 14.0772C15.3526 14.0772 14.8038 14.2479 14.3257 14.5952C13.8541 14.9435 13.5503 15.3897 13.4142 15.934L12.6646 19.819H10.1058L11.6566 11.7672H14.2154L13.9698 13.0141C14.6677 12.1085 15.5654 11.6622 16.6578 11.6622H16.6647ZM9.09182 10.1852C9.69231 10.7041 9.99643 11.4391 9.99643 12.3841C9.99643 13.3291 9.79569 14.1429 9.39508 14.8446C8.99392 15.5516 8.39595 16.1224 7.67631 16.4852C6.92734 16.8737 6.04197 17.0686 5.02018 17.0697H3.23077L2.66215 20.0159H0L2.04185 9.41085H6.49342C7.61744 9.41202 8.48357 9.67248 9.09182 10.1922V10.1852ZM6.81046 14.1884C7.16542 13.841 7.34634 13.3746 7.34634 12.7779C7.34519 12.3894 7.22457 12.0895 6.98449 11.8784C6.74585 11.6684 6.39692 11.5634 5.95065 11.5634H4.31631L3.70892 14.7072H5.34412C5.96443 14.7072 6.45551 14.5366 6.81046 14.1884ZM18.9969 19.8129H16.4382L17.9889 11.7602H20.5287L18.9909 19.8129H18.9969ZM20.8062 8.32848C21.0129 8.5446 21.1103 8.82723 21.1103 9.1816C21.1103 9.65527 20.9486 10.0534 20.6252 10.376C20.4715 10.5356 20.2873 10.6615 20.0839 10.7461C19.8804 10.8307 19.6621 10.8721 19.4423 10.8677C19.1 10.8689 18.8286 10.7619 18.6282 10.5466C18.4283 10.3296 18.3249 10.0479 18.3249 9.69348C18.3249 9.22098 18.4869 8.82023 18.81 8.4991C18.9617 8.34067 19.1436 8.21529 19.3446 8.13059C19.5456 8.0459 19.7615 8.00367 19.9791 8.00648C20.3289 8.00531 20.6046 8.11265 20.8062 8.32848Z" fill="#113979"/>
<path d="M55.7889 9.844C55.6354 9.60006 55.3985 9.42241 55.1238 9.34525C55.0624 9.32669 54.9996 9.31352 54.936 9.30587C54.9032 9.30587 54.8713 9.29975 54.8395 9.29975C54.8136 9.29975 49.4695 9.31287 46.2198 9.319L44.3588 0.892747C44.3009 0.633095 44.1571 0.401466 43.9513 0.236497C43.7525 0.0783121 43.506 -0.00515774 43.2535 0.0002469C43.0278 0.0002469 42.8012 0.0728719 42.6073 0.197122C42.4153 0.322195 42.2592 0.496691 42.155 0.702872C42.1094 0.800872 39.2542 7.92775 38.6856 9.34525L38.6529 9.41087C38.6529 9.41087 38.6072 9.46337 38.5814 9.4765L38.5236 9.48962C38.4073 9.48962 26.6344 9.92975 22.9186 10.1065C22.8412 10.111 22.7685 10.1456 22.7155 10.2031C22.6626 10.2606 22.6335 10.3366 22.6343 10.4154C22.6343 10.4941 22.667 10.5729 22.7256 10.6315L22.8411 10.7172H22.9384C26.699 10.6779 38.5426 10.4941 38.5426 10.4941C38.5943 10.4941 38.64 10.4941 38.6977 10.481C39.0065 10.4268 39.2824 10.2526 39.467 9.99537C39.4971 9.95293 39.5253 9.90913 39.5515 9.86412C39.5773 9.81775 39.5963 9.76525 39.6092 9.739L43.0596 1.68725C43.0705 1.66149 43.0892 1.63994 43.113 1.62576C43.1368 1.61159 43.1645 1.60552 43.1919 1.60845C43.2194 1.61139 43.2452 1.62317 43.2656 1.64207C43.2859 1.66097 43.2998 1.686 43.3052 1.7135L44.9792 9.739C45.0438 10.0085 45.1988 10.2579 45.4185 10.4215C45.5219 10.5002 45.6443 10.5659 45.7735 10.6052C45.839 10.6239 45.9013 10.6394 45.9604 10.6516L53.9926 10.6709C54.1218 10.6709 54.1675 10.8354 54.0632 10.9141L47.1175 15.7896C47.021 15.8552 46.9366 15.941 46.853 16.0329C46.6966 16.2207 46.5917 16.447 46.5489 16.6891C46.5291 16.8204 46.523 16.9516 46.542 17.0829C46.542 17.096 46.542 17.1222 48.4227 25.6797L48.39 25.706L41.8647 21.1385C41.7182 21.0325 41.5461 20.969 41.3667 20.9547C41.0911 20.9301 40.816 21.0068 40.5913 21.1709L33.1347 26.5521C33.0899 26.5865 33.0491 26.604 33.0124 26.6046C32.9865 26.6046 32.9538 26.6046 32.928 26.5854C32.9057 26.5681 32.888 26.5456 32.8763 26.5197C32.8669 26.4875 32.8669 26.4531 32.8763 26.4209C32.915 26.3229 34.1755 23.0609 34.8345 21.3485C34.8603 21.2838 34.8605 21.2115 34.8352 21.1467C34.8098 21.0818 34.7609 21.0294 34.6984 21.0002C34.6314 20.9697 34.5558 20.965 34.4856 20.9871L34.3684 21.0466L32.1913 26.0009L32.1267 26.1584C32.0548 26.3567 32.0495 26.5736 32.1115 26.7754C32.1735 26.9771 32.2994 27.1524 32.4696 27.274C32.6247 27.386 32.8177 27.4446 33.0055 27.4446H33.0503C33.2312 27.4446 33.4251 27.3729 33.5931 27.2547L41.2633 22.0371L41.1022 21.8735V21.9654L47.712 26.7884C47.7507 26.8216 47.8153 26.861 47.867 26.8872C47.9831 26.9456 48.1057 26.985 48.2349 27.0054C48.4739 27.0377 48.717 26.9966 48.9328 26.8872C49.144 26.7835 49.3239 26.6239 49.4536 26.4254C49.5833 26.2268 49.6581 25.9965 49.6702 25.7585V25.5809C49.6702 25.5546 49.6702 25.5354 49.6573 25.4759L47.861 16.9385L55.3822 11.6815L55.4529 11.629C55.4529 11.629 55.4985 11.5966 55.5115 11.5835C55.6011 11.5047 55.6855 11.4129 55.7501 11.314C56.0603 10.8747 56.0732 10.2771 55.7889 9.83087V9.844Z" fill="#F7C14E"/>
<path d="M43.2536 12.1348C43.8256 12.4263 44.3001 12.8829 44.6175 13.4473C44.9336 14.0117 45.0956 14.668 45.0956 15.4222C45.0956 16.3147 44.8952 17.1089 44.4943 17.8048C44.0962 18.4953 43.5137 19.0572 42.8143 19.4253C42.0966 19.813 41.2824 20.0028 40.3718 20.0028C39.5775 20.0028 38.8856 19.8453 38.2912 19.5373C37.716 19.245 37.2392 18.7857 36.9213 18.2178C36.6051 17.6535 36.4432 16.9911 36.4432 16.236C36.4432 15.3435 36.6436 14.5495 37.0445 13.8542C37.4401 13.1657 38.0204 12.6058 38.7176 12.2398C39.4275 11.8589 40.244 11.6685 41.167 11.6685C41.9602 11.6696 42.6534 11.8251 43.2467 12.1348H43.2536ZM39.6033 14.4711C39.2475 14.8911 39.0666 15.4423 39.0666 16.1117C39.0666 16.642 39.2024 17.0707 39.4741 17.398C39.744 17.7258 40.1079 17.8897 40.5656 17.8897C40.8248 17.8956 41.082 17.842 41.318 17.7329C41.554 17.6239 41.7627 17.4621 41.9286 17.2597C42.2844 16.8397 42.4653 16.2885 42.4653 15.6191C42.4653 15.0888 42.3298 14.6601 42.0587 14.3328C41.7864 14.0047 41.4255 13.8411 40.9663 13.8411C40.707 13.8352 40.4499 13.8888 40.2139 13.9978C39.9779 14.1069 39.7692 14.2687 39.6033 14.4711ZM34.7373 12.3842C35.2155 12.8628 35.455 13.4998 35.455 14.2803C35.4538 14.5679 35.43 14.826 35.3835 15.0547L34.4659 19.8191H31.9072L32.7411 15.4423C32.7712 15.3109 32.7863 15.1765 32.7859 15.0416C32.7848 14.6939 32.6837 14.4183 32.4827 14.2147C32.2817 14.0123 32.0037 13.9117 31.6487 13.9128C31.2294 13.914 30.8481 14.0826 30.5046 14.4186C30.1626 14.7528 29.9429 15.193 29.8395 15.7311L29.0512 19.8261H26.4924L27.3393 15.4485C27.366 15.3212 27.381 15.1918 27.3841 15.0617C27.3841 14.7073 27.2807 14.4247 27.0808 14.2217C26.8801 14.0178 26.6027 13.9198 26.2469 13.9198C25.8135 13.9198 25.4327 14.0905 25.0898 14.4247C24.7487 14.7607 24.5269 15.1982 24.4247 15.7372L23.6364 19.8322H21.0776L22.6155 11.7805H25.1743L24.9744 12.8497C25.5947 12.0692 26.4019 11.6755 27.3841 11.6755C28.0366 11.6766 28.5857 11.8318 29.0314 12.141C29.4776 12.456 29.7749 12.883 29.9299 13.4272C30.6984 12.2591 31.6547 11.6685 32.8049 11.6685C33.6199 11.6685 34.2661 11.9117 34.7434 12.3903L34.7373 12.3842Z" fill="#113979"/>
</svg>
