<svg width="32" height="32" viewBox="0 0 24 24" fill="none" xmlns="http://www.w3.org/2000/svg">
<path fill-rule="evenodd" clip-rule="evenodd" d="M11.9147 5.53918C12.1275 5.54284 12.3289 5.63723 12.4684 5.79797C13.2113 6.65396 13.7775 7.51161 14.1949 8.35852C15.1227 7.54564 16.3024 6.86111 17.7828 6.37512C17.9743 6.31229 18.1844 6.33786 18.3629 6.44446C18.5413 6.55106 18.6724 6.7295 18.7242 6.93762C18.9817 7.97085 19.1276 9.39748 18.9469 10.9142C19.8603 10.8739 20.8527 10.9721 21.9274 11.2394C22.3158 11.336 22.5477 11.7496 22.4449 12.1632C22.0844 13.6103 21.1756 15.6236 19.5758 17.1427C17.9455 18.6907 15.6238 19.6954 12.5631 19.0968C12.5278 19.0899 12.4944 19.0784 12.4615 19.0665C12.4515 19.0767 12.4423 19.0877 12.4323 19.0978C12.2882 19.2416 12.0918 19.3212 11.8883 19.3175C11.6849 19.3137 11.4917 19.2272 11.3531 19.0782C11.3496 19.0744 11.3459 19.0703 11.3424 19.0665C11.3099 19.0783 11.2768 19.09 11.2418 19.0968C8.18103 19.6956 5.85946 18.6906 4.22913 17.1427C2.62929 15.6236 1.72056 13.6103 1.35999 12.1632C1.25718 11.7496 1.48818 11.3361 1.87659 11.2394C2.95124 10.9721 3.94375 10.874 4.85706 10.9142C4.67632 9.39731 4.82332 7.97053 5.08069 6.93762C5.13254 6.72953 5.26367 6.55108 5.44202 6.44446C5.62043 6.33789 5.8307 6.31236 6.02209 6.37512C7.51046 6.86372 8.69492 7.55293 9.62463 8.37122C10.1374 7.29111 10.7753 6.39989 11.3531 5.77844C11.498 5.62274 11.702 5.53561 11.9147 5.53918ZM5.16174 12.4738C4.51266 12.4163 3.79504 12.4424 3.00354 12.5802C3.39947 13.6855 4.1131 14.9939 5.18518 16.0118C6.20778 16.9828 7.57229 17.7042 9.36291 17.7267C7.12656 16.5578 5.88051 14.7386 5.27112 12.8419C5.23177 12.7195 5.19586 12.5965 5.16174 12.4738ZM20.8014 12.5802C20.0091 12.4423 19.2908 12.4161 18.6412 12.4738C18.6129 12.5755 18.5852 12.6779 18.5533 12.7794C17.9519 14.6967 16.7047 16.5441 14.442 17.7267C16.2326 17.7042 17.5972 16.9828 18.6198 16.0118C19.6918 14.9939 20.4055 13.6855 20.8014 12.5802ZM11.8961 7.47571C11.1768 8.45509 10.4604 9.86112 10.2174 11.4659C9.94446 13.2689 10.2612 15.3523 11.9088 17.4269C12.6248 16.5119 13.3433 15.1638 13.5865 13.5753C13.8578 11.8044 13.547 9.69046 11.8961 7.47571ZM17.4772 8.13586C16.3393 8.60847 15.4651 9.21414 14.7965 9.88489C15.2073 11.2613 15.2562 12.5867 15.0699 13.8029C14.9545 14.5563 14.7486 15.262 14.4899 15.9083C15.9311 14.9316 16.7422 13.61 17.1676 12.254C17.6222 10.8048 17.6397 9.30262 17.4772 8.13586ZM6.32874 8.13586C6.16422 9.31693 6.18316 10.8416 6.65393 12.3068C7.0782 13.6271 7.8737 14.9109 9.26624 15.8722C8.62023 14.2703 8.51501 12.688 8.73401 11.2413C8.8037 10.7811 8.90686 10.3361 9.03381 9.9093C8.36193 9.22846 7.48036 8.6142 6.32874 8.13586Z" fill="#1D1D1D"/>
</svg>
