<svg width="24" height="24" viewBox="0 0 24 24" fill="none" xmlns="http://www.w3.org/2000/svg">
<path fill-rule="evenodd" clip-rule="evenodd" d="M10.0753 1.99586C12.2012 1.94769 14.2646 2.71867 15.835 4.1482C17.4054 5.57777 18.3629 7.55637 18.5079 9.67164C18.6527 11.7871 17.9734 13.8774 16.6124 15.5066L20.7452 19.6267C21.0383 19.9193 21.0384 20.3947 20.7452 20.6873C20.453 20.9786 19.9798 20.9785 19.6876 20.6873L15.5518 16.5642C13.9179 17.9211 11.8218 18.5973 9.70025 18.4529C7.57895 18.3084 5.59491 17.3544 4.16119 15.7888C2.72744 14.223 1.9537 12.1654 2.00201 10.0457C2.05044 7.92604 2.91644 5.90621 4.41998 4.40699C5.92357 2.90777 7.94942 2.04416 10.0753 1.99586ZM11.5938 3.64527C10.2845 3.38564 8.92675 3.51871 7.69342 4.02808C6.46007 4.53749 5.4058 5.40082 4.66412 6.50758C3.92258 7.61426 3.52646 8.91588 3.52643 10.2468C3.52853 12.031 4.2407 13.742 5.50592 15.0037C6.77125 16.2652 8.48707 16.9743 10.2764 16.9763C11.6113 16.9763 12.9165 16.582 14.0264 15.8425C15.1364 15.103 16.0019 14.0518 16.5128 12.822C17.0236 11.5922 17.157 10.2389 16.8965 8.93336C16.6361 7.62791 15.9938 6.42826 15.0499 5.48707C14.106 4.54598 12.903 3.90499 11.5938 3.64527Z" fill="#1D1D1D"/>
</svg>
