<svg width="24" height="24" viewBox="0 0 24 24" fill="none" xmlns="http://www.w3.org/2000/svg">
<path fill-rule="evenodd" clip-rule="evenodd" d="M17.1172 1.55725C17.9894 1.40344 18.8887 1.5632 19.6543 2.00842C20.4197 2.45366 21.0031 3.15588 21.3008 3.98987C21.5983 4.82389 21.5909 5.7368 21.2803 6.56604C20.9695 7.39523 20.3749 8.08799 19.6025 8.52112C18.8301 8.95413 17.9291 9.09964 17.0596 8.93225C16.2987 8.78572 15.6047 8.40785 15.0703 7.85413L14.8516 7.60608L9.36914 11.0338C9.56883 11.6785 9.56881 12.3686 9.36914 13.0133L14.8516 16.441C15.2006 16.0017 15.6438 15.6463 16.1484 15.401C16.6533 15.1557 17.2073 15.0269 17.7686 15.024L18.0459 15.0338C18.69 15.0815 19.3129 15.2953 19.8525 15.6559C20.469 16.0679 20.9496 16.6534 21.2334 17.3385C21.5172 18.0237 21.591 18.7781 21.4463 19.5055C21.3016 20.2327 20.9452 20.9011 20.4209 21.4254C19.8965 21.9499 19.2274 22.3071 18.5 22.4518C17.7727 22.5964 17.019 22.5216 16.334 22.2379C15.6488 21.9541 15.0624 21.4737 14.6504 20.8571C14.2385 20.2405 14.0186 19.5155 14.0186 18.774C14.0221 18.4387 14.073 18.1051 14.1689 17.7838L8.68652 14.3561C8.20251 14.9654 7.54041 15.4091 6.79297 15.6256C6.04562 15.842 5.24929 15.8204 4.51465 15.5641C3.78001 15.3078 3.14294 14.8293 2.69238 14.1949C2.24197 13.5607 2.00009 12.802 2 12.024C2 11.246 2.24186 10.4866 2.69238 9.85217C3.14294 9.21781 3.78 8.73936 4.51465 8.48303C5.24928 8.22676 6.04562 8.20512 6.79297 8.42151C7.54041 8.638 8.20251 9.08173 8.68652 9.69104L14.1689 6.26331C14.0731 5.94214 14.0221 5.6092 14.0186 5.27405C14.013 4.38839 14.3215 3.52853 14.8887 2.84827C15.4557 2.16826 16.2452 1.7111 17.1172 1.55725ZM18.6299 16.6949C18.2188 16.5247 17.7665 16.4802 17.3301 16.567C16.8937 16.6538 16.4924 16.8677 16.1777 17.1823C15.8631 17.4969 15.6493 17.8982 15.5625 18.3346C15.4757 18.771 15.5202 19.2233 15.6904 19.6344C15.8607 20.0454 16.1487 20.3969 16.5186 20.6442C16.8885 20.8914 17.3236 21.024 17.7686 21.024C18.3651 21.024 18.9375 20.7866 19.3594 20.3649C19.7812 19.943 20.0184 19.3706 20.0186 18.774C20.0186 18.329 19.8869 17.8931 19.6396 17.5231C19.3924 17.1532 19.0409 16.8652 18.6299 16.6949ZM6.62988 9.94495C6.2188 9.77467 5.76648 9.73025 5.33008 9.81702C4.89368 9.90382 4.49238 10.1177 4.17773 10.4323C3.8631 10.7469 3.64933 11.1482 3.5625 11.5846C3.47569 12.021 3.52016 12.4733 3.69043 12.8844C3.86069 13.2954 4.14867 13.6469 4.51855 13.8942C4.88849 14.1414 5.32364 14.274 5.76855 14.274C6.36512 14.274 6.93745 14.0366 7.35938 13.6149C7.78122 13.193 8.01843 12.6206 8.01855 12.024C8.01855 11.579 7.88688 11.1431 7.63965 10.7731C7.39244 10.4032 7.04087 10.1152 6.62988 9.94495ZM17.7686 3.02405C17.172 3.02412 16.5996 3.26044 16.1777 3.68225C15.7558 4.10421 15.5186 4.67731 15.5186 5.27405C15.5186 5.7189 15.6513 6.15416 15.8984 6.52405C16.1457 6.89382 16.4973 7.18195 16.9082 7.35217C17.3193 7.52236 17.7717 7.5669 18.208 7.4801C18.6442 7.39328 19.0448 7.17927 19.3594 6.86487C19.674 6.5502 19.8888 6.14898 19.9756 5.71253C20.0624 5.27614 20.0179 4.8238 19.8477 4.41272C19.6774 4.00159 19.3886 3.65019 19.0186 3.40296C18.6486 3.15578 18.2135 3.02405 17.7686 3.02405Z" fill="white"/>
</svg>
