<svg width="24" height="24" viewBox="0 0 24 24" fill="none" xmlns="http://www.w3.org/2000/svg">
<path fill-rule="evenodd" clip-rule="evenodd" d="M17.1171 1.55725C17.9893 1.40344 18.8885 1.5632 19.6542 2.00842C20.4196 2.45366 21.003 3.15588 21.3007 3.98987C21.5982 4.82389 21.5908 5.7368 21.2802 6.56604C20.9694 7.39522 20.3748 8.08799 19.6024 8.52112C18.83 8.95413 17.929 9.09964 17.0594 8.93225C16.2986 8.78572 15.6045 8.40785 15.0702 7.85413L14.8514 7.60608L9.36902 11.0338C9.5687 11.6785 9.56869 12.3686 9.36902 13.0133L14.8514 16.441C15.2005 16.0017 15.6436 15.6463 16.1483 15.401C16.6532 15.1557 17.2071 15.0269 17.7684 15.024L18.0458 15.0338C18.6899 15.0815 19.3128 15.2953 19.8524 15.6559C20.4689 16.0679 20.9495 16.6534 21.2333 17.3385C21.5171 18.0237 21.5909 18.7781 21.4462 19.5055C21.3014 20.2327 20.9451 20.9011 20.4208 21.4254C19.8963 21.9499 19.2273 22.3071 18.4999 22.4518C17.7726 22.5964 17.0189 22.5216 16.3339 22.2379C15.6486 21.9541 15.0623 21.4737 14.6503 20.8571C14.2384 20.2405 14.0185 19.5155 14.0184 18.774C14.022 18.4387 14.0729 18.1051 14.1688 17.7838L8.6864 14.3561C8.20238 14.9654 7.54029 15.4091 6.79285 15.6256C6.04549 15.842 5.24916 15.8204 4.51453 15.5641C3.77989 15.3078 3.14281 14.8293 2.69226 14.1949C2.24185 13.5607 1.99997 12.802 1.99988 12.024C1.99988 11.246 2.24174 10.4866 2.69226 9.85217C3.14282 9.21781 3.77988 8.73936 4.51453 8.48303C5.24916 8.22676 6.0455 8.20512 6.79285 8.42151C7.54029 8.638 8.20238 9.08173 8.6864 9.69104L14.1688 6.2633C14.0729 5.94214 14.022 5.6092 14.0184 5.27405C14.0129 4.38839 14.3214 3.52852 14.8885 2.84827C15.4556 2.16826 16.2451 1.7111 17.1171 1.55725ZM18.6298 16.6949C18.2187 16.5247 17.7664 16.4802 17.33 16.567C16.8936 16.6538 16.4923 16.8677 16.1776 17.1823C15.863 17.4969 15.6492 17.8982 15.5624 18.3346C15.4756 18.771 15.52 19.2233 15.6903 19.6344C15.8606 20.0454 16.1486 20.3969 16.5184 20.6442C16.8884 20.8913 17.3235 21.024 17.7684 21.024C18.365 21.024 18.9373 20.7866 19.3593 20.3649C19.7811 19.943 20.0183 19.3706 20.0184 18.774C20.0184 18.329 19.8868 17.8931 19.6395 17.5231C19.3923 17.1532 19.0407 16.8652 18.6298 16.6949ZM6.62976 9.94495C6.21868 9.77467 5.76636 9.73024 5.32996 9.81702C4.89356 9.90382 4.49226 10.1177 4.17761 10.4323C3.86298 10.7469 3.64921 11.1482 3.56238 11.5846C3.47557 12.021 3.52004 12.4733 3.69031 12.8844C3.86056 13.2954 4.14855 13.6469 4.51843 13.8942C4.88837 14.1413 5.32352 14.274 5.76843 14.274C6.365 14.274 6.93733 14.0366 7.35925 13.6149C7.7811 13.193 8.01831 12.6206 8.01843 12.024C8.01843 11.579 7.88676 11.1431 7.63953 10.7731C7.39232 10.4032 7.04075 10.1152 6.62976 9.94495ZM17.7684 3.02405C17.1719 3.02412 16.5995 3.26044 16.1776 3.68225C15.7557 4.10421 15.5184 4.67731 15.5184 5.27405C15.5185 5.7189 15.6512 6.15416 15.8983 6.52405C16.1455 6.89382 16.4971 7.18195 16.9081 7.35217C17.3191 7.52236 17.7715 7.5669 18.2079 7.4801C18.6441 7.39328 19.0447 7.17927 19.3593 6.86487C19.6739 6.5502 19.8886 6.14898 19.9755 5.71252C20.0623 5.27614 20.0178 4.8238 19.8475 4.41272C19.6772 4.00159 19.3884 3.65019 19.0184 3.40295C18.6484 3.15577 18.2134 3.02405 17.7684 3.02405Z" fill="#1D1D1D"/>
</svg>
