<svg width="32" height="32" viewBox="0 0 32 32" fill="none" xmlns="http://www.w3.org/2000/svg">
<path d="M29.3332 24.9999C29.3332 25.5522 28.8855 25.9999 28.3332 25.9999H27.9998C27.2238 26.0068 26.457 25.8304 25.762 25.4851C25.0669 25.1397 24.4632 24.6352 23.9998 24.0126C23.5318 24.6302 22.927 25.1309 22.2331 25.4757C21.5391 25.8205 20.7747 25.9999 19.9998 25.9999C19.2249 25.9999 18.4606 25.8205 17.7666 25.4757C17.0726 25.1309 16.4679 24.6302 15.9998 24.0126C15.5318 24.6302 14.927 25.1309 14.2331 25.4757C13.5391 25.8205 12.7747 25.9999 11.9998 25.9999C11.2249 25.9999 10.4606 25.8205 9.7666 25.4757C9.07263 25.1309 8.46792 24.6302 7.99984 24.0126C7.53651 24.6352 6.93277 25.1397 6.23771 25.4851C5.54266 25.8304 4.77592 26.0068 3.99984 25.9999H3.6665C3.11422 25.9999 2.6665 25.5522 2.6665 24.9999C2.6665 24.4476 3.11422 23.9999 3.6665 23.9999H3.99984C4.68174 23.9598 5.33626 23.7176 5.88001 23.3042C6.42376 22.8907 6.83211 22.3248 7.05304 21.6784C7.11628 21.4782 7.24273 21.3038 7.41343 21.1815C7.58413 21.0591 7.78988 20.9954 7.99984 20.9999C8.20948 21.0009 8.41356 21.0674 8.58363 21.19C8.7537 21.3125 8.88127 21.4852 8.94854 21.6837C9.16998 22.3289 9.57835 22.8937 10.1217 23.3062C10.6651 23.7186 11.3188 23.9601 11.9998 23.9999C12.6817 23.9598 13.3363 23.7176 13.88 23.3042C14.4238 22.8907 14.8321 22.3248 15.053 21.6784C15.1189 21.4798 15.246 21.3071 15.4161 21.1852C15.5862 21.0633 15.7906 20.9984 15.9998 20.9999C16.2095 21.0009 16.4136 21.0674 16.5836 21.19C16.7537 21.3125 16.8813 21.4852 16.9485 21.6837C17.17 22.3289 17.5784 22.8937 18.1217 23.3062C18.6651 23.7186 19.3188 23.9601 19.9998 23.9999C20.6817 23.9598 21.3363 23.7176 21.88 23.3042C22.4238 22.8907 22.8321 22.3248 23.053 21.6784C23.1204 21.4802 23.2483 21.308 23.4186 21.1863C23.589 21.0646 23.7933 20.9995 24.0027 21.0001C24.2121 21.0007 24.416 21.0669 24.5857 21.1896C24.7554 21.3123 24.8823 21.4851 24.9485 21.6837C25.17 22.3289 25.5784 22.8937 26.1217 23.3062C26.6651 23.7186 27.3188 23.9601 27.9998 23.9999H28.3332C28.8855 23.9999 29.3332 24.4476 29.3332 24.9999Z" fill="#1D1D1D"/>
<path d="M22.2928 18.2929C22.6833 17.9024 22.6833 17.2693 22.2928 16.8788L14.2928 8.87881C14.0149 8.59923 13.6843 8.37758 13.3201 8.22672C12.9559 8.07585 12.5654 7.99876 12.1712 7.99991L4.99984 7.99991C4.44755 7.99991 3.99984 8.44763 3.99984 8.99991C3.99984 9.5522 4.44755 9.99991 4.99984 9.99991L12.1712 9.99991C12.3027 9.99951 12.4329 10.0252 12.5544 10.0755C12.6758 10.1258 12.7861 10.1997 12.8787 10.2929L15.5857 12.9999L9.99984 18.5858L11.4139 19.9999L16.9998 14.414L20.8787 18.2929C21.2692 18.6834 21.9023 18.6834 22.2928 18.2929Z" fill="#1D1D1D"/>
<path d="M19.9998 9.99991C19.9998 9.20879 20.2344 8.43543 20.674 7.77763C21.1135 7.11983 21.7382 6.60714 22.4691 6.30439C23.2 6.00164 24.0043 5.92243 24.7802 6.07677C25.5561 6.23111 26.2689 6.61207 26.8283 7.17148C27.3877 7.73089 27.7686 8.44362 27.923 9.21955C28.0773 9.99547 27.9981 10.7997 27.6954 11.5306C27.3926 12.2615 26.8799 12.8863 26.2221 13.3258C25.5643 13.7653 24.791 13.9999 23.9998 13.9999C22.9393 13.9988 21.9225 13.577 21.1726 12.8271C20.4227 12.0772 20.0009 11.0604 19.9998 9.99991ZM21.9998 9.99991C21.9998 10.3955 22.1171 10.7822 22.3369 11.1111C22.5567 11.4399 22.869 11.6963 23.2345 11.8477C23.5999 11.999 24.0021 12.0387 24.39 11.9615C24.778 11.8843 25.1343 11.6938 25.414 11.4141C25.6938 11.1344 25.8842 10.7781 25.9614 10.3901C26.0386 10.0021 25.999 9.6 25.8476 9.23454C25.6962 8.86909 25.4399 8.55673 25.111 8.33697C24.7821 8.11721 24.3954 7.99991 23.9998 7.99991C23.4696 8.00052 22.9612 8.21143 22.5863 8.58637C22.2114 8.96131 22.0004 9.46966 21.9998 9.99991Z" fill="#1D1D1D"/>
</svg>
